<?xml version="1.0" encoding="UTF-8"?>
<!DOCTYPE svg PUBLIC "-//W3C//DTD SVG 1.1//EN" "http://www.w3.org/Graphics/SVG/1.1/DTD/svg11.dtd">
<svg xmlns="http://www.w3.org/2000/svg" version="1.1" width="180px" height="180px" style="shape-rendering:geometricPrecision; text-rendering:geometricPrecision; image-rendering:optimizeQuality; fill-rule:evenodd; clip-rule:evenodd" xmlns:xlink="http://www.w3.org/1999/xlink">
<g><path style="opacity:1" fill="#d16014" d="M 10.5,-0.5 C 63.1667,-0.5 115.833,-0.5 168.5,-0.5C 173.167,2.16667 176.833,5.83333 179.5,10.5C 179.5,63.1667 179.5,115.833 179.5,168.5C 176.833,173.167 173.167,176.833 168.5,179.5C 115.833,179.5 63.1667,179.5 10.5,179.5C 5.83333,176.833 2.16667,173.167 -0.5,168.5C -0.5,115.833 -0.5,63.1667 -0.5,10.5C 2.16667,5.83333 5.83333,2.16667 10.5,-0.5 Z"/></g>
<g><path style="opacity:1" fill="#e7ab86" d="M 28.5,66.5 C 28.5,81.8333 28.5,97.1667 28.5,112.5C 30.5,112.5 32.5,112.5 34.5,112.5C 32.3926,113.468 30.0593,113.802 27.5,113.5C 27.1704,97.6578 27.5037,81.9911 28.5,66.5 Z"/></g>
<g><path style="opacity:1" fill="#fdf6f7" d="M 28.5,66.5 C 30.5,66.5 32.5,66.5 34.5,66.5C 34.3336,74.1739 34.5003,81.8406 35,89.5C 41.7166,81.9053 48.55,74.4053 55.5,67C 58.1667,66.3333 60.8333,66.3333 63.5,67C 57.9498,73.2616 52.2831,79.4282 46.5,85.5C 52.5873,94.6752 58.9207,103.675 65.5,112.5C 62.8333,113.833 60.1667,113.833 57.5,112.5C 52.3978,105.282 47.0645,98.2817 41.5,91.5C 39.1831,93.316 37.0165,95.316 35,97.5C 34.5007,102.489 34.3341,107.489 34.5,112.5C 32.5,112.5 30.5,112.5 28.5,112.5C 28.5,97.1667 28.5,81.8333 28.5,66.5 Z"/></g>
<g><path style="opacity:1" fill="#e6a983" d="M 72.5,66.5 C 72.5,81.8333 72.5,97.1667 72.5,112.5C 78.5,112.5 84.5,112.5 90.5,112.5C 84.3554,113.49 78.0221,113.823 71.5,113.5C 71.1704,97.6578 71.5037,81.9911 72.5,66.5 Z"/></g>
<g><path style="opacity:1" fill="#fdf6f8" d="M 72.5,66.5 C 80.8861,66.2133 89.2195,66.7133 97.5,68C 106.895,71.7781 111.228,78.7781 110.5,89C 111.147,103.179 104.481,111.012 90.5,112.5C 84.5,112.5 78.5,112.5 72.5,112.5C 72.5,97.1667 72.5,81.8333 72.5,66.5 Z"/></g>
<g><path style="opacity:1" fill="#fcf0ee" d="M 119.5,66.5 C 121.833,66.5 124.167,66.5 126.5,66.5C 126.5,80.1667 126.5,93.8333 126.5,107.5C 134.833,107.5 143.167,107.5 151.5,107.5C 151.5,109.5 151.5,111.5 151.5,113.5C 140.833,113.5 130.167,113.5 119.5,113.5C 119.5,97.8333 119.5,82.1667 119.5,66.5 Z"/></g>
<g><path style="opacity:1" fill="#de8d59" d="M 90.5,72.5 C 86.8333,72.5 83.1667,72.5 79.5,72.5C 79.5,84.1667 79.5,95.8333 79.5,107.5C 78.5049,95.6783 78.1716,83.6783 78.5,71.5C 82.7016,71.1832 86.7016,71.5166 90.5,72.5 Z"/></g>
<g><path style="opacity:1" fill="#d16116" d="M 90.5,72.5 C 96.6903,72.6793 100.857,75.6793 103,81.5C 106.82,100.843 98.987,109.509 79.5,107.5C 79.5,95.8333 79.5,84.1667 79.5,72.5C 83.1667,72.5 86.8333,72.5 90.5,72.5 Z"/></g>
</svg>
